Coordinates
version=1
nRows=19
nColumns=24
inDegrees=yes

Units are S.I. units (second, meters, Newtons, ...)
Angles are in degrees.

endheader
time	pelvis_tilt	pelvis_list	pelvis_rotation	pelvis_tx	pelvis_ty	pelvis_tz	hip_flexion_r	hip_adduction_r	hip_rotation_r	knee_angle_r	ankle_angle_r	subtalar_angle_r	mtp_angle_r	hip_flexion_l	hip_adduction_l	hip_rotation_l	knee_angle_l	ankle_angle_l	subtalar_angle_l	mtp_angle_l	lumbar_extension	lumbar_bending	lumbar_rotation
      4.24500000	    -20.02646685	     -2.93815396	      0.00334336	     -1.29364716	      0.00073936	     -0.27721154	     10.77025444	      8.14868188	      5.40827314	     -3.66257802	      0.95129496	     -4.51421376	     -0.61153745	     44.13091072	      2.27477262	      4.97705991	    -50.62612285	     16.32835051	      7.11906812	    -66.63439099	     12.61153412	     -0.03225408	      4.21193360
      4.25000000	    -19.92439785	     -2.88419880	     -0.24548641	     -1.28652502	      0.00071792	     -0.27700527	      9.99802430	      8.13575179	      5.39522754	     -3.38290603	      0.87688257	     -4.20670739	     -0.37623663	     44.39280486	      2.16385726	      4.98935967	    -49.05190629	     16.50113277	      7.13402775	    -66.62458938	     12.45170485	      0.02208303	      4.51683339
      4.25500000	    -19.89543939	     -2.82822567	     -0.50743684	     -1.27942171	      0.00050579	     -0.27673109	      9.34102011	      8.12854270	      5.39697031	     -3.17323766	      0.83944887	     -3.92705979	     -0.15073412	     44.70307318	      2.01863982	      4.98922545	    -47.41856806	     16.62380997	      7.28162557	    -66.59860488	     12.36878751	      0.06939194	      4.80292567
      4.26000000	    -19.86556661	     -2.77408959	     -0.76613118	     -1.27234129	      0.00021320	     -0.27649505	      8.71017140	      8.11822469	      5.38308702	     -3.01156360	      0.81830767	     -3.64133118	      0.10936431	     44.97366163	      1.87176239	      5.01634402	    -45.71228921	     16.66070208	      7.43705686	    -66.56839676	     12.27348501	      0.11977413	      5.09383398
      4.26500000	    -19.93798805	     -2.81298345	     -0.96882167	     -1.26533674	     -0.00036471	     -0.27634217	      8.20753451	      8.20430600	      5.34391003	     -2.87917417	      0.77776201	     -3.48575760	      0.18413289	     45.36259755	      1.68464747	      5.17690462	    -44.00928014	     16.67411593	      7.68466203	    -66.56016296	     12.28300976	      0.26014444	      5.31494984
      4.27000000	    -19.73202788	     -2.67917573	     -1.21861236	     -1.25826783	     -0.00055670	     -0.27619975	      7.45758897	      8.08542378	      5.14356936	     -2.82506518	      0.82398196	     -2.94251902	      1.14531121	     45.33244425	      1.59658226	      5.17601913	    -42.11148444	     16.54704224	      7.87129299	    -66.42290496	     11.97877586	      0.23226983	      5.60544020
      4.27500000	    -19.78591365	     -2.60805979	     -1.56097048	     -1.25124128	     -0.00118494	     -0.27587621	      6.99865392	      8.06506226	      5.24482830	     -2.81229981	      0.84612165	     -2.70468257	      1.49513518	     45.58731758	      1.35441339	      5.10299515	    -40.23951551	     16.48497999	      8.19735210	    -66.38149587	     11.96452198	      0.28442873	      5.95079010
      4.28000000	    -19.87224278	     -2.63309718	     -1.74838491	     -1.24426881	     -0.00201377	     -0.27575079	      6.58554784	      8.13073410	      5.22897624	     -2.82404138	      0.87583810	     -2.59828595	      1.60095181	     45.87572521	      1.15135289	      5.29431041	    -38.35800921	     16.46423036	      8.67226415	    -66.38118079	     11.97153659	      0.40300690	      6.12876703
      4.28500000	    -19.78281873	     -2.45489097	     -2.10649629	     -1.23723020	     -0.00253707	     -0.27539614	      6.04227337	      7.98294761	      5.30109207	     -2.94559312	      1.05440842	     -2.19067891	      2.01307262	     45.86106248	      0.95007656	      5.11244587	    -36.31327185	     16.40464516	      9.15137369	    -66.36146344	     11.78708827	      0.34009854	      6.47922268
      4.29000000	    -19.65883524	     -2.37566321	     -2.25029375	     -1.23015717	     -0.00318299	     -0.27548161	      5.45844648	      7.88757721	      4.90965337	     -3.00560083	      1.07565253	     -1.65937771	      3.46959135	     45.78266070	      0.87774978	      5.33215850	    -34.22628445	     16.36970200	      9.59516891	    -66.23856439	     11.56688932	      0.34928063	      6.59849035
      4.29500000	    -19.73161689	     -2.28243188	     -2.57433053	     -1.22322388	     -0.00407988	     -0.27515431	      5.12640848	      7.83424772	      5.08417768	     -3.18356660	      1.16844982	     -1.54669303	      3.74134875	     45.91773082	      0.60766991	      5.26408061	    -32.16032357	     16.42423318	     10.31142901	    -66.23649268	     11.54331301	      0.36352040	      6.92855831
      4.30000000	    -19.73057799	     -2.17359191	     -2.82986684	     -1.21622268	     -0.00494682	     -0.27496380	      4.72026800	      7.74008784	      5.16693479	     -3.37433313	      1.29977688	     -1.36459997	      4.05639512	     45.91595819	      0.41117853	      5.28859880	    -30.01883548	     16.52924043	     11.02311621	    -66.24347652	     11.44507296	      0.35208739	      7.17248542
      4.30500000	    -19.71698017	     -2.05771070	     -3.06729834	     -1.20922846	     -0.00585401	     -0.27480392	      4.32779392	      7.63143796	      5.21983611	     -3.61206190	      1.46010424	     -1.16489780	      4.40720252	     45.86570584	      0.22994821	      5.34329616	    -27.83757409	     16.67042417	     11.76507903	    -66.26421166	     11.32841373	      0.32725908	      7.39980598
      4.31000000	    -19.71202803	     -1.94758694	     -3.29344593	     -1.20223771	     -0.00683573	     -0.27466371	      3.96559882	      7.52444672	      5.27710650	     -3.88782265	      1.62915934	     -0.98667811	      4.76489606	     45.80099558	      0.04606014	      5.40999340	    -25.63915333	     16.83601808	     12.52701096	    -66.30000054	     11.21731672	      0.30165997	      7.60123490
      4.31500000	    -19.68011439	     -1.83012340	     -3.44724522	     -1.19521382	     -0.00786965	     -0.27467956	      3.58587498	      7.38232944	      5.15258385	     -4.11986069	      1.57314009	     -0.86072534	      6.54271955	     45.66789121	     -0.06091781	      5.61900423	    -23.39358494	     17.01365129	     13.17668782	    -66.67430180	     11.07962263	      0.25909902	      7.71143607
      4.32000000	    -19.71430698	     -1.74958603	     -3.69911132	     -1.18822410	     -0.00904576	     -0.27446915	      3.29876575	      7.31273162	      5.36469695	     -4.47239903	      1.73369032	     -0.83400050	      6.67835421	     45.62944534	     -0.30928257	      5.61831590	    -21.24155468	     17.21033486	     13.98093838	    -66.69643231	     11.00389793	      0.26191019	      7.94128892
      4.32500000	    -19.72533080	     -1.66086506	     -3.92740496	     -1.18114806	     -0.01026358	     -0.27429468	      2.99359837	      7.22357529	      5.57099897	     -4.84929136	      1.91793652	     -0.79205427	      6.83688272	     45.53511411	     -0.52496527	      5.66069554	    -19.08592220	     17.36528347	     14.69029050	    -66.73779021	     10.91380916	      0.24970544	      8.12943525
      4.33000000	    -19.71999795	     -1.56524580	     -4.15762321	     -1.17401268	     -0.01151859	     -0.27411178	      2.68301197	      7.12069351	      5.80708094	     -5.25627737	      2.10805832	     -0.74579152	      7.01879271	     45.40243712	     -0.72964347	      5.71558823	    -16.95337070	     17.46646310	     15.29027343	    -66.79677538	     10.81129232	      0.22623058	      8.31608906
      4.33500000	    -19.70801284	     -1.45273898	     -4.39366759	     -1.16679435	     -0.01281132	     -0.27394050	      2.37624511	      6.99130211	      6.08110042	     -5.69103147	      2.29277585	     -0.70294196	      7.22142919	     45.24638115	     -0.91312842	      5.78679360	    -14.86827418	     17.52089696	     15.75622985	    -66.86521676	     10.71209975	      0.18908704	      8.51229721
